<svg width="24" height="24" viewBox="0 0 24 24" fill="none" xmlns="http://www.w3.org/2000/svg">
<path d="M20.4819 19.5172L19.9996 19.9996C18.5096 21.4896 12.9997 21.9997 7.49966 16.4997C1.99966 10.9997 2.49956 5.4996 3.99956 3.9996L4.49062 3.50855C5.27149 2.72767 6.57108 2.85687 7.18366 3.77571L9.20382 6.80587C9.66656 7.49997 9.57504 8.4242 8.98515 9.01407L7.93662 10.0626C7.66876 10.3304 7.57905 10.7257 7.75388 11.0617C8.07259 11.6743 8.7374 12.7374 9.99966 13.9997C11.2619 15.2619 12.3249 15.9267 12.9375 16.2454C13.2735 16.4202 13.6687 16.3305 13.9366 16.0627L14.9851 15.0141C15.575 14.4243 16.4992 14.3328 17.1933 14.7955L20.2132 16.8087C21.1374 17.4248 21.2673 18.7319 20.4819 19.5172Z" fill="#666882"/>
</svg>
