<svg width="100" height="16" viewBox="0 0 100 16" fill="none" xmlns="http://www.w3.org/2000/svg">
<path d="M8 0L10.069 5.15226L15.6085 5.52786L11.3477 9.08774L12.7023 14.4721L8 11.52L3.29772 14.4721L4.65228 9.08774L0.391548 5.52786L5.931 5.15226L8 0Z" fill="#161833"/>
<path d="M29 0L31.069 5.15226L36.6085 5.52786L32.3477 9.08774L33.7023 14.4721L29 11.52L24.2977 14.4721L25.6523 9.08774L21.3915 5.52786L26.931 5.15226L29 0Z" fill="#161833"/>
<path d="M50 0L52.069 5.15226L57.6085 5.52786L53.3477 9.08774L54.7023 14.4721L50 11.52L45.2977 14.4721L46.6523 9.08774L42.3915 5.52786L47.931 5.15226L50 0Z" fill="#161833"/>
<path d="M71 0L73.069 5.15226L78.6085 5.52786L74.3477 9.08774L75.7023 14.4721L71 11.52L66.2977 14.4721L67.6523 9.08774L63.3915 5.52786L68.931 5.15226L71 0Z" fill="#161833"/>
<path d="M92.0001 0V11.52L87.2978 14.4721L88.6523 9.08774L84.3916 5.52786L89.931 5.15226L92.0001 0Z" fill="#161833"/>
<path d="M92 1.6101L93.5122 5.37585L93.6526 5.7254L94.0284 5.75089L98.0772 6.02541L94.963 8.6273L94.6739 8.86882L94.7658 9.23412L95.7559 13.1695L92.319 11.0118L92 10.8116L91.681 11.0118L88.2441 13.1695L89.2342 9.23412L89.3261 8.86882L89.037 8.6273L85.9228 6.02541L89.9716 5.75089L90.3474 5.7254L90.4878 5.37585L92 1.6101Z" stroke="#161833" stroke-width="1.2"/>
</svg>
