<svg width="125" height="21" viewBox="0 0 125 21" fill="none" xmlns="http://www.w3.org/2000/svg">
<path d="M6.38818 0.988281C9.21143 0.988281 11.3613 1.61377 12.8379 2.86475C14.3145 4.10889 15.0527 5.8623 15.0527 8.125C15.0527 10.3945 14.3623 12.271 12.9814 13.7544C11.6074 15.2515 9.71729 16 7.31104 16H0.338379V15.8564C1.06982 15.5352 1.51074 15.2549 1.66113 15.0156C1.83887 14.749 1.92773 14.2021 1.92773 13.375V3.61328C1.92773 2.7793 1.83887 2.23926 1.66113 1.99316C1.51074 1.74707 1.06982 1.45996 0.338379 1.13184V0.988281H6.38818ZM7.35205 15.3232C8.53467 15.2412 9.47461 14.585 10.1719 13.3545C10.8691 12.1172 11.2178 10.4424 11.2178 8.33008C11.2178 6.60059 10.9648 5.18213 10.459 4.07471C10.2676 3.65771 10.0112 3.28174 9.68994 2.94678C9.36865 2.61182 9.05078 2.34863 8.73633 2.15723C8.49707 2.01367 8.18604 1.89404 7.80322 1.79834C7.42041 1.70264 7.12305 1.65479 6.91113 1.65479C6.78809 1.64111 6.55566 1.63428 6.21387 1.63428H5.50635V14.3389C5.50635 14.6055 5.67041 14.8311 5.99854 15.0156C6.32666 15.1934 6.77783 15.2959 7.35205 15.3232ZM15.8115 16V15.8564C16.3516 15.5693 16.6899 15.3027 16.8267 15.0566C16.9771 14.79 17.0522 14.2842 17.0522 13.5391V9.08887C17.0522 8.30273 16.9771 7.74219 16.8267 7.40723C16.6899 7.09961 16.3516 6.79199 15.8115 6.48438V6.34082C17.2334 6.25879 18.6963 5.99219 20.2002 5.54102L20.1592 7.64307H20.2002C20.3984 7.08252 20.7539 6.60059 21.2666 6.19727C21.7793 5.78711 22.3843 5.58203 23.0815 5.58203C23.3892 5.58203 23.7173 5.66064 24.0659 5.81787L23.6455 9.19141H23.502C22.6338 8.0498 21.8921 7.479 21.2769 7.479C20.8394 7.479 20.5044 7.73535 20.272 8.24805V13.5391C20.272 14.3047 20.3608 14.8105 20.5386 15.0566C20.7163 15.3027 21.1641 15.5693 21.8818 15.8564V16H15.8115ZM25.9629 16.1641C25.5049 16.1641 25.105 16 24.7632 15.6719C24.4282 15.3369 24.2607 14.9438 24.2607 14.4927C24.2607 14.0347 24.4282 13.6382 24.7632 13.3032C25.0981 12.9614 25.498 12.7905 25.9629 12.7905C26.4141 12.7905 26.8071 12.9614 27.1421 13.3032C27.4771 13.6382 27.6445 14.0347 27.6445 14.4927C27.6445 14.9438 27.4771 15.3369 27.1421 15.6719C26.8071 16 26.4141 16.1641 25.9629 16.1641ZM34.3813 9.24268H34.1558V13.375C34.1558 14.1816 34.2515 14.7285 34.4429 15.0156C34.6069 15.2412 35.0991 15.5215 35.9194 15.8564V16H28.9878V15.8564C29.7192 15.5352 30.1602 15.2549 30.3105 15.0156C30.4883 14.749 30.5771 14.2021 30.5771 13.375V3.61328C30.5771 2.7793 30.4883 2.23926 30.3105 1.99316C30.1602 1.74707 29.7192 1.45996 28.9878 1.13184V0.988281H35.8066C37.707 0.988281 39.1631 1.32666 40.1748 2.00342C41.1865 2.68018 41.6924 3.67822 41.6924 4.99756C41.6924 7.82764 39.2554 9.24268 34.3813 9.24268ZM34.9658 1.61377H34.1558V8.62744H34.3608C36.979 8.62744 38.2881 7.43115 38.2881 5.03857C38.2881 2.75537 37.1807 1.61377 34.9658 1.61377ZM46.8091 16.2051C45.1548 16.2051 43.8423 15.7437 42.8716 14.8208C41.9009 13.8911 41.4155 12.6265 41.4155 11.0269C41.4155 9.37939 41.9077 8.06348 42.8921 7.0791C43.8901 6.08105 45.2197 5.58203 46.8809 5.58203C48.5146 5.58203 49.8101 6.05029 50.7671 6.98682C51.731 7.93018 52.2129 9.20508 52.2129 10.8115C52.2129 12.4453 51.7207 13.7544 50.7363 14.7388C49.7588 15.7163 48.4497 16.2051 46.8091 16.2051ZM48.9316 12.6982C48.9043 11.666 48.7881 10.6099 48.583 9.52979C48.3779 8.44971 48.0396 7.57471 47.5679 6.90479C47.1782 6.43311 46.7715 6.17676 46.3477 6.13574C45.9238 6.08789 45.541 6.34082 45.1992 6.89453C44.8643 7.44141 44.6968 8.17969 44.6968 9.10938C44.6968 10.0322 44.8096 11.0679 45.0352 12.2163C45.2607 13.3579 45.6025 14.2637 46.0605 14.9336C46.2725 15.2207 46.5117 15.4292 46.7783 15.5591C47.0449 15.6821 47.3047 15.7095 47.5576 15.6411C47.8105 15.5659 48.043 15.4189 48.2549 15.2002C48.4736 14.9814 48.6445 14.6533 48.7676 14.2158C48.8906 13.7783 48.9453 13.2725 48.9316 12.6982ZM52.623 16V15.8564C53.1631 15.5693 53.5015 15.3027 53.6382 15.0566C53.7886 14.79 53.8638 14.2842 53.8638 13.5391V4.0542C53.8638 2.86475 53.7031 2.12305 53.3818 1.8291C53.2588 1.70605 53.0059 1.51465 52.623 1.25488V1.11133C54.1475 1.01563 55.6343 0.749023 57.0835 0.311523V11.0474L60.1289 8.28906C60.5186 7.94043 60.7134 7.6123 60.7134 7.30469C60.7134 6.87402 60.3066 6.43994 59.4932 6.00244V5.85889H64.3433V6.00244L63.8818 6.2998L63.4204 6.56641C63.3862 6.58008 63.2598 6.65869 63.041 6.80225C62.7471 6.97314 62.4941 7.13379 62.2822 7.28418C61.749 7.68066 61.3013 8.06006 60.939 8.42236L59.6162 9.61182L62.7744 14.0723C63.3486 14.9199 63.998 15.5146 64.7227 15.8564V16H60.416L57.4116 11.355H57.0835V13.5391C57.0835 14.3047 57.1519 14.8105 57.2886 15.0566C57.4253 15.3027 57.7671 15.5693 58.314 15.8564V16H52.623ZM76.1865 13.5391C76.1865 14.3047 76.2549 14.8105 76.3916 15.0566C76.5283 15.2959 76.8735 15.5625 77.4272 15.8564V16H71.7363V15.8564C72.2832 15.5693 72.625 15.3027 72.7617 15.0566C72.9189 14.7764 72.9976 14.2705 72.9976 13.5391V11.3755C73.0112 10.4116 73.0181 9.68359 73.0181 9.19141C73.0181 8.54883 72.8711 8.05664 72.5771 7.71484C72.29 7.37305 71.9106 7.20215 71.439 7.20215C70.6938 7.20215 70.0308 7.64307 69.4497 8.5249V13.5391C69.4497 14.3047 69.5181 14.8105 69.6548 15.0566C69.7983 15.3096 70.1333 15.5762 70.6597 15.8564V16H64.9893V15.8564C65.5293 15.5693 65.8677 15.3027 66.0044 15.0566C66.1548 14.79 66.23 14.2842 66.23 13.5391V4.0542C66.23 2.86475 66.0693 2.12305 65.748 1.8291C65.625 1.70605 65.3721 1.51465 64.9893 1.25488V1.11133C66.5137 1.01563 68.0005 0.749023 69.4497 0.311523V7.78662C70.4341 6.31689 71.644 5.58203 73.0796 5.58203C73.353 5.58203 73.6196 5.60938 73.8794 5.66406C74.146 5.71875 74.4194 5.82129 74.6997 5.97168C74.9868 6.11523 75.2363 6.2998 75.4482 6.52539C75.667 6.75098 75.8447 7.05518 75.9814 7.43799C76.1182 7.81396 76.1865 8.24463 76.1865 8.72998V13.5391ZM84.8203 5.85889H88.3271V6.00244C87.8213 6.37842 87.459 6.71338 87.2402 7.00732C87.001 7.33545 86.7549 7.79346 86.502 8.38135C84.4238 13.1938 83.2549 15.853 82.9951 16.3589C82.4824 17.3979 81.9561 18.2217 81.416 18.8301C80.8623 19.4453 80.2607 19.9785 79.6113 20.4297L78.0835 18.4199L78.145 18.2866L78.3091 18.3071H78.5449C80.418 18.3071 81.6348 17.7329 82.1953 16.5845L82.4927 16L78.2886 7.49951C78.0083 6.90479 77.54 6.40576 76.8838 6.00244V5.85889H82.9541V6.00244C82.2363 6.40576 81.8774 6.8125 81.8774 7.22266C81.8774 7.37305 81.9561 7.63281 82.1133 8.00195L84.1743 12.3701C84.9946 10.5518 85.5825 9.15039 85.938 8.16602C86.02 7.96094 86.061 7.76611 86.061 7.58154C86.061 7.05518 85.6475 6.52881 84.8203 6.00244V5.85889ZM88.2041 16V15.8564C88.7441 15.5693 89.0825 15.3027 89.2192 15.0566C89.3696 14.79 89.4448 14.2842 89.4448 13.5391V4.0542C89.4448 2.86475 89.2842 2.12305 88.9629 1.8291C88.8398 1.70605 88.5869 1.51465 88.2041 1.25488V1.11133C89.7285 1.01563 91.2153 0.749023 92.6646 0.311523V13.5391C92.6646 14.3047 92.7329 14.8105 92.8696 15.0566C93.0063 15.3027 93.3481 15.5693 93.895 15.8564V16H88.2041ZM95.0947 2.73145C95.0947 2.30762 95.2622 1.93848 95.5972 1.62402C95.939 1.30957 96.3389 1.15234 96.7969 1.15234C97.2549 1.15234 97.6479 1.30957 97.9761 1.62402C98.311 1.93848 98.4785 2.30762 98.4785 2.73145C98.4785 3.18262 98.3145 3.56543 97.9863 3.87988C97.6582 4.1875 97.2617 4.34131 96.7969 4.34131C96.3389 4.34131 95.939 4.18066 95.5972 3.85938C95.2622 3.53809 95.0947 3.16211 95.0947 2.73145ZM94.1924 16V15.8564C94.7324 15.5693 95.0708 15.3027 95.2075 15.0566C95.3579 14.79 95.4331 14.2842 95.4331 13.5391V9.28369C95.4331 8.12158 95.2725 7.37988 94.9512 7.05859C94.8076 6.91504 94.5547 6.73047 94.1924 6.50488V6.36133C95.6895 6.25879 97.1763 5.98535 98.6528 5.54102V13.5391C98.6528 14.3047 98.7212 14.8105 98.8579 15.0566C98.9946 15.3027 99.3364 15.5693 99.8833 15.8564V16H94.1924ZM111.337 13.416C111.337 14.0859 111.405 14.5337 111.542 14.7593C111.686 14.9712 112.024 15.1694 112.557 15.354V15.4976L108.209 16.2974V14.1543C107.847 14.6875 107.348 15.1763 106.712 15.6206C106.09 16.0581 105.362 16.2769 104.528 16.2769C103.729 16.2769 103.007 16.0376 102.365 15.5591C101.736 15.0737 101.421 14.2603 101.421 13.1187V9.28369C101.421 8.41553 101.346 7.81396 101.196 7.479C101.059 7.15771 100.721 6.83301 100.181 6.50488V6.36133C101.65 6.25879 103.137 5.98535 104.641 5.54102C104.641 6.83984 104.634 8.0293 104.621 9.10938C104.6 10.7295 104.59 11.9121 104.59 12.6572C104.59 13.3066 104.733 13.8057 105.021 14.1543C105.308 14.5029 105.684 14.6772 106.148 14.6772C106.846 14.6772 107.505 14.3115 108.127 13.5801V9.28369C108.127 8.40186 108.056 7.80029 107.912 7.479C107.762 7.14404 107.427 6.81934 106.907 6.50488V6.36133C108.425 6.25195 109.901 5.98535 111.337 5.56152V13.416ZM112.834 16V15.8564C113.374 15.5693 113.712 15.3027 113.849 15.0566C114 14.79 114.075 14.2842 114.075 13.5391V4.0542C114.075 2.86475 113.914 2.12305 113.593 1.8291C113.47 1.70605 113.217 1.51465 112.834 1.25488V1.11133C114.358 1.01563 115.845 0.749023 117.294 0.311523V11.0474L120.34 8.28906C120.729 7.94043 120.924 7.6123 120.924 7.30469C120.924 6.87402 120.518 6.43994 119.704 6.00244V5.85889H124.554V6.00244L124.093 6.2998L123.631 6.56641C123.597 6.58008 123.471 6.65869 123.252 6.80225C122.958 6.97314 122.705 7.13379 122.493 7.28418C121.96 7.68066 121.512 8.06006 121.15 8.42236L119.827 9.61182L122.985 14.0723C123.56 14.9199 124.209 15.5146 124.934 15.8564V16H120.627L117.623 11.355H117.294V13.5391C117.294 14.3047 117.363 14.8105 117.5 15.0566C117.636 15.3027 117.978 15.5693 118.525 15.8564V16H112.834Z" fill="#161833"/>
</svg>
